<svg width="480.1" height="480.1" xmlns="http://www.w3.org/2000/svg"><linearGradient id="a" gradientTransform="matrix(8 0 0 -8 -8 504)" gradientUnits="userSpaceOnUse" x1="32" x2="32" y1="1" y2="63"><stop offset="0" stop-color="#245feb"/><stop offset="1" stop-color="#4fe2f3"/></linearGradient><path fill="url(#a)" d="M240.13.05A240 240 0 0 0 19.47 145.59l-2.99.99 1.16 3.48c-49.78 122.76 9.4 262.64 132.16 312.41a239.87 239.87 0 0 0 90.26 17.58c132.55.02 240.02-107.42 240.04-239.96S372.68.07 240.13.05zm188.26 361l-12.33-12.31v-28.69a8 8 0 0 0-.8-3.58l-31.2-62.3v-30.12a8 8 0 0 0-3.56-6.66l-24-16a8 8 0 0 0-6.4-1.1l-29.39 7.34-49.37-21.18-6.79-47.58 18.83-18.82h40.4l13.6 20.44a8 8 0 0 0 5.35 3.45l48 8c1.28.21 2.6.1 3.84-.3l44.2-14.74a223.2 223.2 0 0 1-10.38 224.15zm-33-282.17l-13 8.67-36.27-7.25-23.53-7.83a7.86 7.86 0 0 0-4.46-.18l-29.75 7.43-13.04-4.34 9.67-19.33h27.05a8 8 0 0 0 3.58-.84l27.68-13.84a224.82 224.82 0 0 1 52.07 37.51zM152.44 33.91l19.2 12.8a7.99 7.99 0 0 0 3.13 1.24l38.77 6.46-3.79 11.32-20.2 6.74a8 8 0 0 0-4.33 3.47l-22.97 38.29-36.9 22.14-54.4 7.77a8 8 0 0 0-6.89 7.91v24a8 8 0 0 0 2.35 5.66l13.65 13.65v13.75l-33.28-22.2-12.07-36.21A225.29 225.29 0 0 1 152.44 33.9zm-22.78 262.3l-36.16-7.24-13.44-26.8v-18.8l29.81-29.82 11.03 22.08a8 8 0 0 0 7.16 4.42h51.48l21.67 36.12a8 8 0 0 0 6.85 3.88h22.24l-5.6 28.06-30.28 30.28a8 8 0 0 0-2.36 5.66v20l-28.8 21.6a8 8 0 0 0-3.2 6.4v28.9l-9.95-3.3-14.05-35.14v-78.46a8 8 0 0 0-6.4-7.84zm-24.04 122.98a223.94 223.94 0 0 1-79.79-244.55l6.65 19.94a8 8 0 0 0 3.14 4.13l39.88 26.58-9.1 9.1a8 8 0 0 0-2.34 5.66v24a8 8 0 0 0 .84 3.58l16 32a8 8 0 0 0 5.6 4.26l33.6 6.71v73.45a8 8 0 0 0 .57 2.97l16 40a8 8 0 0 0 4.9 4.61l24 8a8 8 0 0 0 10.49-7.58v-36l28.8-21.6a8 8 0 0 0 3.2-6.4v-20.69l29.66-29.65a8 8 0 0 0 2.18-4.1l8-40a8 8 0 0 0-7.84-9.56H212.6l-21.67-36.12a8 8 0 0 0-6.86-3.88h-51.05l-13.75-27.58a8 8 0 0 0-12.81-2.08l-10.39 10.35v-12.69a8 8 0 0 0-2.34-5.66l-13.66-13.65v-13.75l49.14-7.02a8.04 8.04 0 0 0 2.98-1.06l40-24a8 8 0 0 0 2.74-2.74l22.48-37.46 21.2-7.08a7.92 7.92 0 0 0 5.05-5.05l8-24a8 8 0 0 0-6.27-10.4l-46.3-7.72-8.14-5.43a223.38 223.38 0 0 1 153.85 5.72l-14.61 7.3h-30.12a8 8 0 0 0-7.2 4.42l-16 32a8 8 0 0 0 4.64 11.16l24 8c1.44.5 2.99.56 4.46.18l29.74-7.43 21.8 7.25c.3.12.63.2.96.26l40 8c2.08.42 4.24 0 6-1.18l18.21-12.15a225.69 225.69 0 0 1 24.07 32.15l-39.36 13.12-42.62-7.1-14.08-21.12a8 8 0 0 0-6.62-3.56h-48a8 8 0 0 0-5.65 2.34l-24 24a8 8 0 0 0-2.27 6.8l8 56a8 8 0 0 0 4.8 6.21l56 24c1.6.7 3.4.84 5.1.41l28.56-7.14 17.46 11.66v27.72a8 8 0 0 0 .8 3.58l31.2 62.3v30.12a8 8 0 0 0 2.35 5.66l16.73 16.74c-74.22 98.93-214.6 118.97-313.52 44.74z"/></svg>